<?xml version="1.0" encoding="UTF-8"?>
<svg width="24" height="24" viewBox="0 0 24 24" xmlns="http://www.w3.org/2000/svg">
  <path d="M12 24c6.627 0 12-5.373 12-12S18.627 0 12 0 0 5.373 0 12s5.373 12 12 12z" fill="#fff"/>
  <path d="M16.2 7.2c-.84.96-2.04 1.08-2.52 1.08-1.2 0-2.4-.96-3.48-.96-.36 0-1.44.12-2.28.96-1.2 1.2-1.2 3.36.12 5.76.72 1.44 1.68 2.88 2.88 2.88.84 0 1.44-.48 2.28-.48.84 0 1.44.48 2.28.48 1.2 0 2.16-1.44 2.88-2.88.36-.72.6-1.44.72-2.16-1.92-.72-2.28-3.36-.36-4.68zm-2.04-3.12c.72-.84.72-1.68.72-1.68s-1.44.24-2.16 1.08c-.72.84-.72 1.68-.72 1.68s1.44-.24 2.16-1.08z" fill="#000"/>
</svg> 