<svg width="32" height="32" viewBox="0 0 32 32" fill="none" xmlns="http://www.w3.org/2000/svg">
<circle cx="16" cy="16" r="16" fill="#2A2A2A"/>
<path d="M16 22.6667C18.2091 22.6667 20 20.8758 20 18.6667H12C12 20.8758 13.7909 22.6667 16 22.6667ZM24 18.6667V17.5556L22.6667 16V10C22.6667 7.6 21.1111 5.55556 18.6667 5V4.44444C18.6667 3.55556 17.9333 2.66667 16.6667 2.66667C15.4 2.66667 14.6667 3.55556 14.6667 4.44444V5C12.2222 5.55556 10.6667 7.6 10.6667 10V16L9.33333 17.5556V18.6667H24ZM19.5556 17.5556H12.4444V10C12.4444 8.22222 13.5556 6.88889 15.3333 6.44444V6C15.3333 5.73333 15.6 5.33333 16 5.33333H17.1111C17.5111 5.33333 17.7778 5.73333 17.7778 6V6.44444C19.5556 6.88889 20.8889 8.22222 20.8889 10V17.5556H19.5556Z" fill="white"/>
</svg>
