<?xml version="1.0" encoding="UTF-8"?>
<svg width="24" height="24" viewBox="0 0 24 24" xmlns="http://www.w3.org/2000/svg">
  <path d="M12 24c6.627 0 12-5.373 12-12S18.627 0 12 0 0 5.373 0 12s5.373 12 12 12z" fill="#fff"/>
  <path d="M12 4.8c2.136 0 4.2.876 5.736 2.412l-2.076 2.076C14.736 8.364 13.416 7.8 12 7.8c-2.316 0-4.2 1.884-4.2 4.2s1.884 4.2 4.2 4.2c1.764 0 3.276-1.092 3.876-2.64h-3.876v-2.4h6.6c.12.576.192 1.176.192 1.8 0 4.02-2.916 6.84-6.792 6.84-3.972 0-7.2-3.228-7.2-7.2s3.228-7.2 7.2-7.2z" fill="#4285F4"/>
</svg> 