<svg width="96" height="96" viewBox="0 0 96 96" fill="none" xmlns="http://www.w3.org/2000/svg">
<circle cx="48" cy="48" r="48" fill="#2A2A2A"/>
<path d="M48 64C51.3137 64 54 61.3137 54 58H42C42 61.3137 44.6863 64 48 64ZM72 58V52.6667L68 48V30C68 22.8 63.3333 16.6667 56 15V13.3333C56 10.6667 53.8 8.66667 51 8.66667C48.2 8.66667 46 10.6667 46 13.3333V15C38.6667 16.6667 34 22.8 34 30V48L30 52.6667V58H72ZM58.6667 52.6667H37.3333V30C37.3333 24.6667 40.6667 20.6667 46 19.3333V18.6667C46 17.2 47.2 16 48.6667 16H51.3333C52.8 16 54 17.2 54 18.6667V19.3333C59.3333 20.6667 62.6667 24.6667 62.6667 30V52.6667H58.6667Z" fill="white"/>
</svg>
